<svg width="500" height="500" viewBox="0 0 500 500" fill="none" xmlns="http://www.w3.org/2000/svg">
<g clip-path="url(#clip0_375_370)">
<path d="M550 -50H-50V550H550V-50Z" fill="white"/>
<path d="M550 -50H-50V550H550V-50Z" fill="white"/>
<path d="M550 -50H-50V550H550V-50Z" fill="white"/>
<path d="M297.536 188.865L291.375 201.135C299 215.979 296.609 234.646 284.193 247.083C270.964 260.339 250.667 262.193 235.458 252.641L227.005 261.115C246.943 275.161 274.662 273.25 292.484 255.391C310.583 237.255 312.271 208.901 297.536 188.865Z" fill="#225AA5"/>
<path d="M262.776 195.224L227.573 212.974L233.422 213.682C241.599 214.672 245.047 224.667 239.224 230.5L225.74 244.01C213.193 228.516 214.109 205.708 228.505 191.287C240.917 178.849 259.552 176.453 274.365 184.094L286.609 177.917C266.615 163.156 238.312 164.844 220.214 182.979C201.24 201.99 200.307 232.234 217.417 252.354L217.427 252.365C217.625 252.599 217.823 252.828 218.031 253.063C218.073 253.109 218.115 253.156 218.156 253.203C218.359 253.432 218.557 253.656 218.76 253.875C218.786 253.906 218.818 253.932 218.844 253.964C219.016 254.151 219.193 254.339 219.37 254.526C219.443 254.599 219.51 254.672 219.578 254.745C219.76 254.932 219.943 255.12 220.13 255.302C220.156 255.333 220.187 255.365 220.214 255.391L297.984 177.469L262.776 195.224Z" fill="#225AA5"/>
<path d="M261.844 242.156L262.547 248.021L297.984 177.469L220.214 255.391C221.198 256.375 216.854 264.604 216.854 264.604L245.057 236.344C250.88 230.51 260.854 233.964 261.844 242.156Z" fill="#029CD6"/>
<path d="M159.749 298.421H154.687C154.489 297.119 153.937 296.098 153.02 295.359C152.103 294.609 150.957 294.234 149.582 294.234C147.749 294.234 146.275 294.911 145.166 296.254C144.051 297.603 143.499 299.515 143.499 301.984C143.499 304.515 144.051 306.437 145.166 307.754C146.291 309.062 147.749 309.713 149.541 309.713C150.874 309.713 151.999 309.369 152.916 308.671C153.843 307.963 154.437 306.978 154.687 305.713L159.749 305.754C159.567 307.202 159.046 308.562 158.187 309.838C157.338 311.119 156.176 312.161 154.707 312.963C153.233 313.754 151.483 314.15 149.457 314.15C147.343 314.15 145.457 313.671 143.791 312.713C142.134 311.754 140.832 310.374 139.874 308.567C138.916 306.749 138.437 304.556 138.437 301.984C138.437 299.4 138.921 297.208 139.895 295.4C140.864 293.583 142.176 292.202 143.832 291.254C145.499 290.296 147.374 289.817 149.457 289.817C151.291 289.817 152.937 290.161 154.395 290.838C155.864 291.504 157.067 292.484 157.999 293.775C158.942 295.056 159.525 296.603 159.749 298.421Z" fill="#225AA5"/>
<path d="M186.854 301.984C186.854 304.567 186.364 306.765 185.395 308.567C184.421 310.374 183.093 311.754 181.416 312.713C179.749 313.671 177.864 314.15 175.77 314.15C173.671 314.15 171.781 313.671 170.104 312.713C168.437 311.754 167.114 310.369 166.145 308.546C165.171 306.728 164.687 304.541 164.687 301.984C164.687 299.4 165.171 297.208 166.145 295.4C167.114 293.583 168.437 292.202 170.104 291.254C171.781 290.296 173.671 289.817 175.77 289.817C177.864 289.817 179.749 290.296 181.416 291.254C183.093 292.202 184.421 293.583 185.395 295.4C186.364 297.208 186.854 299.4 186.854 301.984ZM181.791 301.984C181.791 299.473 181.239 297.556 180.145 296.234C179.046 294.9 177.588 294.234 175.77 294.234C173.947 294.234 172.489 294.9 171.395 296.234C170.296 297.556 169.749 299.473 169.749 301.984C169.749 304.484 170.296 306.4 171.395 307.734C172.489 309.056 173.947 309.713 175.77 309.713C177.588 309.713 179.046 309.056 180.145 307.734C181.239 306.4 181.791 304.484 181.791 301.984Z" fill="#225AA5"/>
<path d="M200.721 313.817H192.325V290.129H200.784C203.169 290.129 205.226 290.603 206.95 291.546C208.669 292.494 209.992 293.848 210.909 295.609C211.836 297.374 212.304 299.494 212.304 301.963C212.304 304.421 211.836 306.541 210.909 308.317C209.976 310.083 208.643 311.442 206.909 312.4C205.185 313.348 203.122 313.817 200.721 313.817ZM197.325 309.525H200.513C202.731 309.525 204.419 308.931 205.575 307.734C206.726 306.525 207.304 304.603 207.304 301.963C207.304 299.327 206.726 297.411 205.575 296.213C204.419 295.02 202.731 294.421 200.513 294.421H197.325V309.525Z" fill="#225AA5"/>
<path d="M217.766 313.817V290.129H233.724V294.254H222.766V299.9H232.891V304.025H222.766V309.692H233.766V313.817H217.766Z" fill="#225AA5"/>
<path d="M243.743 290.129L249.472 308.129H249.68L255.43 290.129H260.972L252.805 313.817H246.368L238.18 290.129H243.743Z" fill="#225AA5"/>
<path d="M269.667 313.817H264.292L272.479 290.129H278.917L287.084 313.817H281.729L279.959 308.421H271.417L269.667 313.817ZM272.688 304.504H278.709L275.792 295.546H275.604L272.688 304.504Z" fill="#225AA5"/>
<path d="M311.508 290.129V313.817H307.174L296.862 298.921H296.695V313.817H291.695V290.129H296.091L306.299 305.025H306.508V290.129H311.508Z" fill="#225AA5"/>
<path d="M316.495 294.254V290.129H335.932V294.254H328.682V313.817H323.745V294.254H316.495Z" fill="#225AA5"/>
<path d="M344.995 313.817H339.62L347.808 290.129H354.245L362.412 313.817H357.058L355.287 308.421H346.745L344.995 313.817ZM348.016 304.504H354.037L351.12 295.546H350.933L348.016 304.504Z" fill="#225AA5"/>
</g>
<defs>
<clipPath id="clip0_375_370">
<rect width="500" height="500" fill="white"/>
</clipPath>
</defs>
</svg>
